M48
; DRILL file {KiCad 7.0.6} date Fri Jan  5 23:35:08 2024
; FORMAT={-:-/ absolute / inch / decimal}
; #@! TF.CreationDate,2024-01-05T23:35:08+05:00
; #@! TF.GenerationSoftware,Kicad,Pcbnew,7.0.6
; #@! TF.FileFunction,Plated,1,2,PTH
FMAT,2
INCH
; #@! TA.AperFunction,Plated,PTH,ComponentDrill
T1C0.0315
; #@! TA.AperFunction,Plated,PTH,ComponentDrill
T2C0.0394
%
G90
G05
T1
X4.2221Y-2.7294
X4.2221Y-3.0294
X4.3221Y-2.7294
X4.3221Y-3.0294
X4.4221Y-2.7294
X4.4221Y-3.0294
X4.5221Y-2.7294
X4.5221Y-3.0294
X4.6221Y-2.7294
X4.6221Y-3.0294
X4.7221Y-2.7294
X4.7221Y-3.0294
X4.8221Y-2.7294
X4.8221Y-3.0294
X4.9221Y-2.7294
X4.9221Y-3.0294
T2
X4.0876Y-2.6948
X4.0876Y-2.7948
X4.0876Y-2.8948
X4.2488Y-2.6068
X4.3473Y-2.6068
X4.4457Y-2.6068
X5.0778Y-2.6489
X5.0778Y-2.7489
X5.0778Y-2.8489
X5.0778Y-2.9489
T0
M30
