%TF.GenerationSoftware,KiCad,Pcbnew,7.0.6*%
%TF.CreationDate,2024-01-05T23:35:14+05:00*%
%TF.ProjectId,FSKmodem,46534b6d-6f64-4656-9d2e-6b696361645f,rev?*%
%TF.SameCoordinates,Original*%
%TF.FileFunction,Copper,L2,Bot*%
%TF.FilePolarity,Positive*%
%FSLAX46Y46*%
G04 Gerber Fmt 4.6, Leading zero omitted, Abs format (unit mm)*
G04 Created by KiCad (PCBNEW 7.0.6) date 2024-01-05 23:35:14*
%MOMM*%
%LPD*%
G01*
G04 APERTURE LIST*
G04 Aperture macros list*
%AMRoundRect*
0 Rectangle with rounded corners*
0 $1 Rounding radius*
0 $2 $3 $4 $5 $6 $7 $8 $9 X,Y pos of 4 corners*
0 Add a 4 corners polygon primitive as box body*
4,1,4,$2,$3,$4,$5,$6,$7,$8,$9,$2,$3,0*
0 Add four circle primitives for the rounded corners*
1,1,$1+$1,$2,$3*
1,1,$1+$1,$4,$5*
1,1,$1+$1,$6,$7*
1,1,$1+$1,$8,$9*
0 Add four rect primitives between the rounded corners*
20,1,$1+$1,$2,$3,$4,$5,0*
20,1,$1+$1,$4,$5,$6,$7,0*
20,1,$1+$1,$6,$7,$8,$9,0*
20,1,$1+$1,$8,$9,$2,$3,0*%
G04 Aperture macros list end*
%TA.AperFunction,ComponentPad*%
%ADD10R,1.700000X1.700000*%
%TD*%
%TA.AperFunction,ComponentPad*%
%ADD11O,1.700000X1.700000*%
%TD*%
%TA.AperFunction,ComponentPad*%
%ADD12R,1.600000X1.600000*%
%TD*%
%TA.AperFunction,ComponentPad*%
%ADD13O,1.600000X1.600000*%
%TD*%
%TA.AperFunction,ComponentPad*%
%ADD14C,1.700000*%
%TD*%
%TA.AperFunction,SMDPad,CuDef*%
%ADD15RoundRect,0.250000X-0.400000X-0.625000X0.400000X-0.625000X0.400000X0.625000X-0.400000X0.625000X0*%
%TD*%
%TA.AperFunction,SMDPad,CuDef*%
%ADD16RoundRect,0.250000X0.412500X0.650000X-0.412500X0.650000X-0.412500X-0.650000X0.412500X-0.650000X0*%
%TD*%
%TA.AperFunction,Conductor*%
%ADD17C,0.600000*%
%TD*%
G04 APERTURE END LIST*
D10*
%TO.P,SV2,1,1*%
%TO.N,GND*%
X128975000Y-67282500D03*
D11*
%TO.P,SV2,2,2*%
%TO.N,Net-(IC1-TXD)*%
X128975000Y-69822500D03*
%TO.P,SV2,3,3*%
%TO.N,Net-(IC1-RXD)*%
X128975000Y-72362500D03*
%TO.P,SV2,4,4*%
%TO.N,+5V*%
X128975000Y-74902500D03*
%TD*%
D12*
%TO.P,IC1,1,VDD*%
%TO.N,+5V*%
X107240900Y-76945800D03*
D13*
%TO.P,IC1,2,CLK*%
%TO.N,unconnected-(IC1-CLK-Pad2)*%
X109780900Y-76945800D03*
%TO.P,IC1,3,CDT*%
%TO.N,unconnected-(IC1-CDT-Pad3)*%
X112320900Y-76945800D03*
%TO.P,IC1,4,RXA*%
%TO.N,Net-(IC1-RXA)*%
X114860900Y-76945800D03*
%TO.P,IC1,5,TRS*%
%TO.N,GND*%
X117400900Y-76945800D03*
%TO.P,IC1,6,RXT*%
%TO.N,unconnected-(IC1-RXT-Pad6)*%
X119940900Y-76945800D03*
%TO.P,IC1,7,RXB*%
%TO.N,Net-(IC1-RXB)*%
X122480900Y-76945800D03*
%TO.P,IC1,8,RXD*%
%TO.N,Net-(IC1-RXD)*%
X125020900Y-76945800D03*
%TO.P,IC1,9,VSS*%
%TO.N,GND*%
X125020900Y-69325800D03*
%TO.P,IC1,10,CDL*%
%TO.N,Net-(IC1-CDL)*%
X122480900Y-69325800D03*
%TO.P,IC1,11,TXA*%
%TO.N,Net-(IC1-TXA)*%
X119940900Y-69325800D03*
%TO.P,IC1,12,TXR2*%
%TO.N,GND*%
X117400900Y-69325800D03*
%TO.P,IC1,13,TXR1*%
X114860900Y-69325800D03*
%TO.P,IC1,14,TXD*%
%TO.N,Net-(IC1-TXD)*%
X112320900Y-69325800D03*
%TO.P,IC1,15,OSC1*%
%TO.N,Net-(IC1-OSC1)*%
X109780900Y-69325800D03*
%TO.P,IC1,16,OSC2*%
%TO.N,Net-(IC1-OSC2)*%
X107240900Y-69325800D03*
%TD*%
D10*
%TO.P,SV1,1,1*%
%TO.N,Net-(C1-Pad2)*%
X103825480Y-73528788D03*
D11*
%TO.P,SV1,2,2*%
%TO.N,Net-(C2-Pad2)*%
X103825480Y-70988788D03*
%TO.P,SV1,3,3*%
%TO.N,GND*%
X103825480Y-68448788D03*
%TD*%
D14*
%TO.P,Q1,1,1*%
%TO.N,Net-(IC1-OSC1)*%
X112920606Y-66213256D03*
%TO.P,Q1,2,VSS*%
%TO.N,GND*%
X110420606Y-66213256D03*
%TO.P,Q1,3,3*%
%TO.N,Net-(IC1-OSC2)*%
X107920606Y-66213256D03*
%TD*%
D15*
%TO.P,R2,1,1*%
%TO.N,Net-(IC1-RXB)*%
X122015594Y-74404922D03*
%TO.P,R2,2,2*%
%TO.N,Net-(IC1-CDL)*%
X125115594Y-74404922D03*
%TD*%
%TO.P,R1,1,1*%
%TO.N,Net-(IC1-CDL)*%
X121996163Y-71833726D03*
%TO.P,R1,2,2*%
%TO.N,+5V*%
X125096163Y-71833726D03*
%TD*%
%TO.P,R3,1,1*%
%TO.N,GND*%
X115270319Y-73104680D03*
%TO.P,R3,2,2*%
%TO.N,Net-(IC1-RXB)*%
X118370319Y-73104680D03*
%TD*%
D16*
%TO.P,C2,1,1*%
%TO.N,Net-(IC1-TXA)*%
X111008000Y-71760200D03*
%TO.P,C2,2,2*%
%TO.N,Net-(C2-Pad2)*%
X107883000Y-71760200D03*
%TD*%
%TO.P,C1,1,1*%
%TO.N,Net-(IC1-RXA)*%
X110961400Y-74349400D03*
%TO.P,C1,2,2*%
%TO.N,Net-(C1-Pad2)*%
X107836400Y-74349400D03*
%TD*%
D17*
%TO.N,Net-(IC1-RXA)*%
X112264500Y-74349400D02*
X114860900Y-76945800D01*
X110961400Y-74349400D02*
X112264500Y-74349400D01*
%TO.N,Net-(C1-Pad2)*%
X104628188Y-73528788D02*
X105448800Y-74349400D01*
X105448800Y-74349400D02*
X107836400Y-74349400D01*
X103825480Y-73528788D02*
X104628188Y-73528788D01*
%TO.N,Net-(IC1-TXA)*%
X118318300Y-70948400D02*
X111819800Y-70948400D01*
X111819800Y-70948400D02*
X111008000Y-71760200D01*
X119940900Y-69325800D02*
X118318300Y-70948400D01*
%TO.N,Net-(C2-Pad2)*%
X103825480Y-70988788D02*
X104628188Y-70988788D01*
X104628188Y-70988788D02*
X105399600Y-71760200D01*
X105399600Y-71760200D02*
X107883000Y-71760200D01*
%TO.N,+5V*%
X125631700Y-78245800D02*
X128975000Y-74902500D01*
X107240900Y-76945800D02*
X108540900Y-78245800D01*
X128975000Y-74902500D02*
X128164937Y-74902500D01*
X128164937Y-74902500D02*
X125096163Y-71833726D01*
X108540900Y-78245800D02*
X125631700Y-78245800D01*
%TO.N,GND*%
X115270319Y-73104680D02*
X115270319Y-74815219D01*
X115270319Y-74815219D02*
X117400900Y-76945800D01*
%TO.N,Net-(IC1-RXB)*%
X118370319Y-73104680D02*
X120715352Y-73104680D01*
X122480900Y-76945800D02*
X122480900Y-74870228D01*
X122480900Y-74870228D02*
X122015594Y-74404922D01*
X120715352Y-73104680D02*
X122015594Y-74404922D01*
%TO.N,Net-(IC1-CDL)*%
X121996163Y-69810537D02*
X122480900Y-69325800D01*
X124567359Y-74404922D02*
X121996163Y-71833726D01*
X121996163Y-71833726D02*
X121996163Y-69810537D01*
X125115594Y-74404922D02*
X124567359Y-74404922D01*
%TD*%
%TA.AperFunction,Conductor*%
%TO.N,GND*%
G36*
X114308115Y-71768585D02*
G01*
X114353870Y-71821389D01*
X114363814Y-71890547D01*
X114334789Y-71954103D01*
X114328757Y-71960581D01*
X114278003Y-72011334D01*
X114185962Y-72160555D01*
X114185960Y-72160560D01*
X114130813Y-72326982D01*
X114130812Y-72326989D01*
X114120319Y-72429693D01*
X114120319Y-72854680D01*
X116420318Y-72854680D01*
X116420318Y-72429708D01*
X116420317Y-72429693D01*
X116409824Y-72326982D01*
X116354677Y-72160560D01*
X116354675Y-72160555D01*
X116262634Y-72011334D01*
X116211881Y-71960581D01*
X116178396Y-71899258D01*
X116183380Y-71829566D01*
X116225252Y-71773633D01*
X116290716Y-71749216D01*
X116299562Y-71748900D01*
X117340369Y-71748900D01*
X117407408Y-71768585D01*
X117453163Y-71821389D01*
X117463107Y-71890547D01*
X117434082Y-71954103D01*
X117428050Y-71960581D01*
X117377608Y-72011022D01*
X117285506Y-72160343D01*
X117285504Y-72160348D01*
X117264040Y-72225123D01*
X117230320Y-72326883D01*
X117230320Y-72326884D01*
X117230319Y-72326884D01*
X117219819Y-72429663D01*
X117219819Y-73779681D01*
X117219820Y-73779698D01*
X117230319Y-73882476D01*
X117230320Y-73882479D01*
X117285434Y-74048799D01*
X117285505Y-74049014D01*
X117377607Y-74198336D01*
X117501663Y-74322392D01*
X117650985Y-74414494D01*
X117817522Y-74469679D01*
X117920310Y-74480180D01*
X118820327Y-74480179D01*
X118820335Y-74480178D01*
X118820338Y-74480178D01*
X118876621Y-74474428D01*
X118923116Y-74469679D01*
X119089653Y-74414494D01*
X119238975Y-74322392D01*
X119363031Y-74198336D01*
X119455133Y-74049014D01*
X119474630Y-73990173D01*
X119514403Y-73932731D01*
X119578919Y-73905908D01*
X119592336Y-73905180D01*
X120332412Y-73905180D01*
X120399451Y-73924865D01*
X120420093Y-73941499D01*
X120828775Y-74350181D01*
X120862260Y-74411504D01*
X120865094Y-74437862D01*
X120865094Y-75079923D01*
X120865095Y-75079941D01*
X120875594Y-75182718D01*
X120875595Y-75182721D01*
X120908219Y-75281173D01*
X120930780Y-75349256D01*
X121022882Y-75498578D01*
X121146938Y-75622634D01*
X121296260Y-75714736D01*
X121462797Y-75769921D01*
X121494566Y-75773166D01*
X121525109Y-75776287D01*
X121589800Y-75802683D01*
X121629952Y-75859864D01*
X121632815Y-75929675D01*
X121600187Y-75987326D01*
X121480854Y-76106658D01*
X121350332Y-76293065D01*
X121350330Y-76293068D01*
X121323280Y-76351077D01*
X121277107Y-76403515D01*
X121209913Y-76422666D01*
X121143032Y-76402449D01*
X121098519Y-76351077D01*
X121071468Y-76293066D01*
X120993756Y-76182080D01*
X120940945Y-76106658D01*
X120780041Y-75945754D01*
X120593634Y-75815232D01*
X120593632Y-75815231D01*
X120387397Y-75719061D01*
X120387388Y-75719058D01*
X120167597Y-75660166D01*
X120167593Y-75660165D01*
X120167592Y-75660165D01*
X120167591Y-75660164D01*
X120167586Y-75660164D01*
X119940902Y-75640332D01*
X119940898Y-75640332D01*
X119714213Y-75660164D01*
X119714202Y-75660166D01*
X119494411Y-75719058D01*
X119494402Y-75719061D01*
X119288167Y-75815231D01*
X119288165Y-75815232D01*
X119101758Y-75945754D01*
X118940854Y-76106658D01*
X118810334Y-76293063D01*
X118810332Y-76293066D01*
X118783283Y-76351074D01*
X118783006Y-76351667D01*
X118736833Y-76404106D01*
X118669639Y-76423257D01*
X118602758Y-76403041D01*
X118558242Y-76351665D01*
X118531035Y-76293320D01*
X118531034Y-76293318D01*
X118400557Y-76106979D01*
X118239720Y-75946142D01*
X118053382Y-75815665D01*
X117847228Y-75719534D01*
X117650900Y-75666927D01*
X117650900Y-76630114D01*
X117638945Y-76618159D01*
X117526048Y-76560635D01*
X117432381Y-76545800D01*
X117369419Y-76545800D01*
X117275752Y-76560635D01*
X117162855Y-76618159D01*
X117150900Y-76630114D01*
X117150900Y-75666927D01*
X116954571Y-75719534D01*
X116748417Y-75815665D01*
X116562079Y-75946142D01*
X116401242Y-76106979D01*
X116270767Y-76293315D01*
X116243557Y-76351667D01*
X116197384Y-76404106D01*
X116130190Y-76423257D01*
X116063309Y-76403041D01*
X116018793Y-76351665D01*
X116018517Y-76351074D01*
X115991468Y-76293066D01*
X115860947Y-76106661D01*
X115860945Y-76106658D01*
X115700041Y-75945754D01*
X115513634Y-75815232D01*
X115513632Y-75815231D01*
X115307397Y-75719061D01*
X115307388Y-75719058D01*
X115087597Y-75660166D01*
X115087593Y-75660165D01*
X115087592Y-75660165D01*
X115087591Y-75660164D01*
X115087586Y-75660164D01*
X114860902Y-75640332D01*
X114860898Y-75640332D01*
X114759060Y-75649241D01*
X114690560Y-75635474D01*
X114660572Y-75613394D01*
X112766762Y-73719584D01*
X112766759Y-73719582D01*
X112731404Y-73697366D01*
X112725729Y-73693340D01*
X112693089Y-73667310D01*
X112655459Y-73649187D01*
X112649372Y-73645822D01*
X112614025Y-73623612D01*
X112574614Y-73609821D01*
X112568188Y-73607159D01*
X112530561Y-73589039D01*
X112489845Y-73579745D01*
X112483162Y-73577820D01*
X112443759Y-73564032D01*
X112402263Y-73559355D01*
X112395408Y-73558191D01*
X112354700Y-73548901D01*
X112354696Y-73548900D01*
X112354694Y-73548900D01*
X112354691Y-73548900D01*
X112204201Y-73548900D01*
X112137162Y-73529215D01*
X112091407Y-73476411D01*
X112086495Y-73463904D01*
X112083895Y-73456057D01*
X112058714Y-73380066D01*
X112043056Y-73354680D01*
X114120320Y-73354680D01*
X114120320Y-73779666D01*
X114130813Y-73882377D01*
X114185960Y-74048799D01*
X114185962Y-74048804D01*
X114278003Y-74198025D01*
X114401973Y-74321995D01*
X114551194Y-74414036D01*
X114551199Y-74414038D01*
X114717621Y-74469185D01*
X114717628Y-74469186D01*
X114820338Y-74479679D01*
X115020317Y-74479679D01*
X115020318Y-74479678D01*
X115020319Y-73354680D01*
X115520319Y-73354680D01*
X115520319Y-74479679D01*
X115720291Y-74479679D01*
X115720305Y-74479678D01*
X115823016Y-74469185D01*
X115989438Y-74414038D01*
X115989443Y-74414036D01*
X116138664Y-74321995D01*
X116262634Y-74198025D01*
X116354675Y-74048804D01*
X116354677Y-74048799D01*
X116409824Y-73882377D01*
X116409825Y-73882370D01*
X116420318Y-73779666D01*
X116420319Y-73779653D01*
X116420319Y-73354680D01*
X115520319Y-73354680D01*
X115020319Y-73354680D01*
X114120320Y-73354680D01*
X112043056Y-73354680D01*
X111966612Y-73230744D01*
X111901649Y-73165781D01*
X111868164Y-73104458D01*
X111873148Y-73034766D01*
X111901649Y-72990419D01*
X111948249Y-72943819D01*
X112013212Y-72878856D01*
X112105314Y-72729534D01*
X112160499Y-72562997D01*
X112171000Y-72460209D01*
X112170999Y-71872899D01*
X112190683Y-71805861D01*
X112243487Y-71760106D01*
X112294999Y-71748900D01*
X114241076Y-71748900D01*
X114308115Y-71768585D01*
G37*
%TD.AperFunction*%
%TA.AperFunction,Conductor*%
G36*
X130033740Y-64212236D02*
G01*
X130079495Y-64265040D01*
X130090701Y-64316551D01*
X130090701Y-65819597D01*
X130071016Y-65886636D01*
X130018212Y-65932391D01*
X129949054Y-65942335D01*
X129938198Y-65940277D01*
X129932375Y-65938901D01*
X129872844Y-65932500D01*
X129225000Y-65932500D01*
X129225000Y-66846998D01*
X129117315Y-66797820D01*
X129010763Y-66782500D01*
X128939237Y-66782500D01*
X128832685Y-66797820D01*
X128724999Y-66846998D01*
X128725000Y-65932500D01*
X128077155Y-65932500D01*
X128017627Y-65938901D01*
X128017620Y-65938903D01*
X127882913Y-65989145D01*
X127882906Y-65989149D01*
X127767812Y-66075309D01*
X127767809Y-66075312D01*
X127681649Y-66190406D01*
X127681645Y-66190413D01*
X127631403Y-66325120D01*
X127631401Y-66325127D01*
X127625000Y-66384655D01*
X127625000Y-67032500D01*
X128541314Y-67032500D01*
X128515507Y-67072656D01*
X128475000Y-67210611D01*
X128475000Y-67354389D01*
X128515507Y-67492344D01*
X128541314Y-67532500D01*
X127625000Y-67532500D01*
X127625000Y-68180344D01*
X127631401Y-68239872D01*
X127631403Y-68239879D01*
X127681645Y-68374586D01*
X127681649Y-68374593D01*
X127767809Y-68489687D01*
X127767812Y-68489690D01*
X127882906Y-68575850D01*
X127882913Y-68575854D01*
X128014470Y-68624921D01*
X128070403Y-68666792D01*
X128094821Y-68732256D01*
X128079970Y-68800529D01*
X128058819Y-68828784D01*
X127936503Y-68951100D01*
X127800965Y-69144669D01*
X127800964Y-69144671D01*
X127701098Y-69358835D01*
X127701094Y-69358844D01*
X127639938Y-69587086D01*
X127639936Y-69587096D01*
X127619341Y-69822499D01*
X127619341Y-69822500D01*
X127639936Y-70057903D01*
X127639938Y-70057913D01*
X127701094Y-70286155D01*
X127701096Y-70286159D01*
X127701097Y-70286163D01*
X127772403Y-70439079D01*
X127800965Y-70500330D01*
X127800967Y-70500334D01*
X127936501Y-70693895D01*
X127936506Y-70693902D01*
X128103597Y-70860993D01*
X128103603Y-70860998D01*
X128289158Y-70990925D01*
X128332783Y-71045502D01*
X128339977Y-71115000D01*
X128308454Y-71177355D01*
X128289158Y-71194075D01*
X128103597Y-71324005D01*
X127936505Y-71491097D01*
X127800965Y-71684669D01*
X127800964Y-71684671D01*
X127701098Y-71898835D01*
X127701094Y-71898844D01*
X127639938Y-72127086D01*
X127639936Y-72127096D01*
X127619341Y-72362499D01*
X127619341Y-72362500D01*
X127639936Y-72597903D01*
X127639938Y-72597913D01*
X127701094Y-72826155D01*
X127701096Y-72826159D01*
X127701097Y-72826163D01*
X127755961Y-72943819D01*
X127800965Y-73040330D01*
X127800967Y-73040334D01*
X127843145Y-73100570D01*
X127865472Y-73166776D01*
X127848462Y-73234543D01*
X127797514Y-73282356D01*
X127728804Y-73295034D01*
X127664147Y-73268552D01*
X127653889Y-73259374D01*
X126282981Y-71888465D01*
X126249496Y-71827142D01*
X126246662Y-71800784D01*
X126246662Y-71158724D01*
X126246661Y-71158707D01*
X126236162Y-71055929D01*
X126236161Y-71055926D01*
X126214622Y-70990925D01*
X126180977Y-70889392D01*
X126088875Y-70740070D01*
X125964819Y-70616014D01*
X125848787Y-70544445D01*
X125802064Y-70492498D01*
X125790841Y-70423535D01*
X125818685Y-70359453D01*
X125842764Y-70337330D01*
X125859720Y-70325457D01*
X126020557Y-70164620D01*
X126151034Y-69978282D01*
X126247165Y-69772126D01*
X126247169Y-69772117D01*
X126299772Y-69575800D01*
X125336586Y-69575800D01*
X125348541Y-69563845D01*
X125406065Y-69450948D01*
X125425886Y-69325800D01*
X125406065Y-69200652D01*
X125348541Y-69087755D01*
X125336586Y-69075800D01*
X126299772Y-69075800D01*
X126299772Y-69075799D01*
X126247169Y-68879482D01*
X126247165Y-68879473D01*
X126151034Y-68673317D01*
X126020557Y-68486979D01*
X125859720Y-68326142D01*
X125673382Y-68195665D01*
X125467228Y-68099534D01*
X125270900Y-68046927D01*
X125270899Y-69010113D01*
X125258945Y-68998159D01*
X125146048Y-68940635D01*
X125052381Y-68925800D01*
X124989419Y-68925800D01*
X124895752Y-68940635D01*
X124782855Y-68998159D01*
X124770900Y-69010114D01*
X124770900Y-68046927D01*
X124574571Y-68099534D01*
X124368417Y-68195665D01*
X124182079Y-68326142D01*
X124021242Y-68486979D01*
X123890767Y-68673315D01*
X123863557Y-68731667D01*
X123817384Y-68784106D01*
X123750190Y-68803257D01*
X123683309Y-68783041D01*
X123638793Y-68731665D01*
X123638517Y-68731074D01*
X123611468Y-68673066D01*
X123480947Y-68486661D01*
X123480945Y-68486658D01*
X123320041Y-68325754D01*
X123133634Y-68195232D01*
X123133632Y-68195231D01*
X122927397Y-68099061D01*
X122927388Y-68099058D01*
X122707597Y-68040166D01*
X122707593Y-68040165D01*
X122707592Y-68040165D01*
X122707591Y-68040164D01*
X122707586Y-68040164D01*
X122480902Y-68020332D01*
X122480898Y-68020332D01*
X122254213Y-68040164D01*
X122254202Y-68040166D01*
X122034411Y-68099058D01*
X122034402Y-68099061D01*
X121828167Y-68195231D01*
X121828165Y-68195232D01*
X121641758Y-68325754D01*
X121480854Y-68486658D01*
X121350332Y-68673065D01*
X121350330Y-68673068D01*
X121323280Y-68731077D01*
X121277107Y-68783515D01*
X121209913Y-68802666D01*
X121143032Y-68782449D01*
X121098519Y-68731077D01*
X121071468Y-68673066D01*
X120940947Y-68486661D01*
X120940945Y-68486658D01*
X120780041Y-68325754D01*
X120593634Y-68195232D01*
X120593632Y-68195231D01*
X120387397Y-68099061D01*
X120387388Y-68099058D01*
X120167597Y-68040166D01*
X120167593Y-68040165D01*
X120167592Y-68040165D01*
X120167591Y-68040164D01*
X120167586Y-68040164D01*
X119940902Y-68020332D01*
X119940898Y-68020332D01*
X119714213Y-68040164D01*
X119714202Y-68040166D01*
X119494411Y-68099058D01*
X119494402Y-68099061D01*
X119288167Y-68195231D01*
X119288165Y-68195232D01*
X119101758Y-68325754D01*
X118940854Y-68486658D01*
X118814725Y-68666792D01*
X118810332Y-68673066D01*
X118783283Y-68731074D01*
X118783006Y-68731667D01*
X118736833Y-68784106D01*
X118669639Y-68803257D01*
X118602758Y-68783041D01*
X118558242Y-68731665D01*
X118531035Y-68673320D01*
X118531034Y-68673318D01*
X118400557Y-68486979D01*
X118239720Y-68326142D01*
X118053382Y-68195665D01*
X117847228Y-68099534D01*
X117650900Y-68046927D01*
X117650900Y-69010114D01*
X117638945Y-68998159D01*
X117526048Y-68940635D01*
X117432381Y-68925800D01*
X117369419Y-68925800D01*
X117275752Y-68940635D01*
X117162855Y-68998159D01*
X117150900Y-69010114D01*
X117150900Y-68046927D01*
X116954571Y-68099534D01*
X116748417Y-68195665D01*
X116562079Y-68326142D01*
X116401242Y-68486979D01*
X116270765Y-68673317D01*
X116243282Y-68732257D01*
X116197110Y-68784696D01*
X116129916Y-68803848D01*
X116063035Y-68783632D01*
X116018518Y-68732257D01*
X115991034Y-68673317D01*
X115860557Y-68486979D01*
X115699720Y-68326142D01*
X115513382Y-68195665D01*
X115307228Y-68099534D01*
X115110900Y-68046927D01*
X115110900Y-69010114D01*
X115098945Y-68998159D01*
X114986048Y-68940635D01*
X114892381Y-68925800D01*
X114829419Y-68925800D01*
X114735752Y-68940635D01*
X114622855Y-68998159D01*
X114610900Y-69010114D01*
X114610900Y-68046927D01*
X114414571Y-68099534D01*
X114208417Y-68195665D01*
X114022079Y-68326142D01*
X113861242Y-68486979D01*
X113730767Y-68673315D01*
X113703557Y-68731667D01*
X113657384Y-68784106D01*
X113590190Y-68803257D01*
X113523309Y-68783041D01*
X113478793Y-68731665D01*
X113478517Y-68731074D01*
X113451468Y-68673066D01*
X113320947Y-68486661D01*
X113320945Y-68486658D01*
X113160041Y-68325754D01*
X112973634Y-68195232D01*
X112973632Y-68195231D01*
X112767397Y-68099061D01*
X112767388Y-68099058D01*
X112547597Y-68040166D01*
X112547593Y-68040165D01*
X112547592Y-68040165D01*
X112547591Y-68040164D01*
X112547586Y-68040164D01*
X112320902Y-68020332D01*
X112320898Y-68020332D01*
X112094213Y-68040164D01*
X112094202Y-68040166D01*
X111874411Y-68099058D01*
X111874402Y-68099061D01*
X111668167Y-68195231D01*
X111668165Y-68195232D01*
X111481758Y-68325754D01*
X111320854Y-68486658D01*
X111190332Y-68673065D01*
X111190331Y-68673067D01*
X111163282Y-68731075D01*
X111117109Y-68783514D01*
X111049916Y-68802666D01*
X110983035Y-68782450D01*
X110938518Y-68731075D01*
X110911586Y-68673320D01*
X110911468Y-68673066D01*
X110780947Y-68486661D01*
X110780945Y-68486658D01*
X110620041Y-68325754D01*
X110433634Y-68195232D01*
X110433632Y-68195231D01*
X110227397Y-68099061D01*
X110227388Y-68099058D01*
X110007597Y-68040166D01*
X110007593Y-68040165D01*
X110007592Y-68040165D01*
X110007591Y-68040164D01*
X110007586Y-68040164D01*
X109780902Y-68020332D01*
X109780898Y-68020332D01*
X109554213Y-68040164D01*
X109554202Y-68040166D01*
X109334411Y-68099058D01*
X109334402Y-68099061D01*
X109128167Y-68195231D01*
X109128165Y-68195232D01*
X108941758Y-68325754D01*
X108780854Y-68486658D01*
X108650332Y-68673065D01*
X108650331Y-68673067D01*
X108623282Y-68731075D01*
X108577109Y-68783514D01*
X108509916Y-68802666D01*
X108443035Y-68782450D01*
X108398518Y-68731075D01*
X108371586Y-68673320D01*
X108371468Y-68673066D01*
X108240947Y-68486661D01*
X108240945Y-68486658D01*
X108080041Y-68325754D01*
X107893634Y-68195232D01*
X107893632Y-68195231D01*
X107687397Y-68099061D01*
X107687388Y-68099058D01*
X107467597Y-68040166D01*
X107467593Y-68040165D01*
X107467592Y-68040165D01*
X107467591Y-68040164D01*
X107467586Y-68040164D01*
X107240902Y-68020332D01*
X107240898Y-68020332D01*
X107014213Y-68040164D01*
X107014202Y-68040166D01*
X106794411Y-68099058D01*
X106794402Y-68099061D01*
X106588167Y-68195231D01*
X106588165Y-68195232D01*
X106401758Y-68325754D01*
X106240854Y-68486658D01*
X106110332Y-68673065D01*
X106110331Y-68673067D01*
X106014161Y-68879302D01*
X106014158Y-68879311D01*
X105955266Y-69099102D01*
X105955264Y-69099113D01*
X105935432Y-69325798D01*
X105935432Y-69325801D01*
X105955264Y-69552486D01*
X105955266Y-69552497D01*
X106014158Y-69772288D01*
X106014161Y-69772297D01*
X106110331Y-69978532D01*
X106110332Y-69978534D01*
X106240854Y-70164941D01*
X106401758Y-70325845D01*
X106421995Y-70340015D01*
X106588166Y-70456368D01*
X106775516Y-70543731D01*
X106827955Y-70589903D01*
X106847107Y-70657097D01*
X106828650Y-70721209D01*
X106785689Y-70790859D01*
X106785685Y-70790868D01*
X106757905Y-70874704D01*
X106718132Y-70932149D01*
X106653616Y-70958972D01*
X106640199Y-70959700D01*
X105782540Y-70959700D01*
X105715501Y-70940015D01*
X105694859Y-70923381D01*
X105130450Y-70358972D01*
X105130447Y-70358970D01*
X105095092Y-70336754D01*
X105089417Y-70332728D01*
X105056775Y-70306697D01*
X105056776Y-70306697D01*
X105019148Y-70288575D01*
X105013064Y-70285213D01*
X104977903Y-70263120D01*
X104942304Y-70229253D01*
X104863975Y-70117387D01*
X104863973Y-70117384D01*
X104696882Y-69950294D01*
X104696881Y-69950293D01*
X104514374Y-69822500D01*
X104510885Y-69820057D01*
X104467261Y-69765480D01*
X104460068Y-69695981D01*
X104491590Y-69633627D01*
X104510885Y-69616907D01*
X104696562Y-69486893D01*
X104863585Y-69319870D01*
X104999080Y-69126366D01*
X105098909Y-68912280D01*
X105098912Y-68912274D01*
X105156116Y-68698788D01*
X104259166Y-68698788D01*
X104284973Y-68658632D01*
X104325480Y-68520677D01*
X104325480Y-68376899D01*
X104284973Y-68238944D01*
X104259166Y-68198788D01*
X105156116Y-68198788D01*
X105156115Y-68198787D01*
X105098912Y-67985301D01*
X105098909Y-67985295D01*
X104999080Y-67771210D01*
X104999079Y-67771208D01*
X104863593Y-67577714D01*
X104863588Y-67577708D01*
X104696562Y-67410682D01*
X104503058Y-67275187D01*
X104288972Y-67175358D01*
X104288966Y-67175355D01*
X104075480Y-67118152D01*
X104075479Y-67118152D01*
X104075479Y-68013286D01*
X103967795Y-67964108D01*
X103861243Y-67948788D01*
X103789717Y-67948788D01*
X103683165Y-67964108D01*
X103575479Y-68013286D01*
X103575479Y-67118152D01*
X103575478Y-67118152D01*
X103361985Y-67175358D01*
X103147902Y-67275187D01*
X103147900Y-67275188D01*
X102954406Y-67410674D01*
X102827592Y-67537488D01*
X102766269Y-67570972D01*
X102696577Y-67565988D01*
X102640644Y-67524116D01*
X102616227Y-67458652D01*
X102615911Y-67449547D01*
X102618640Y-66213256D01*
X106564947Y-66213256D01*
X106585542Y-66448659D01*
X106585544Y-66448669D01*
X106646700Y-66676911D01*
X106646702Y-66676915D01*
X106646703Y-66676919D01*
X106703080Y-66797820D01*
X106746571Y-66891086D01*
X106746573Y-66891090D01*
X106805068Y-66974629D01*
X106882111Y-67084657D01*
X107049205Y-67251751D01*
X107145990Y-67319520D01*
X107242771Y-67387288D01*
X107242773Y-67387289D01*
X107242776Y-67387291D01*
X107456943Y-67487159D01*
X107685198Y-67548319D01*
X107873524Y-67564795D01*
X107920605Y-67568915D01*
X107920606Y-67568915D01*
X107920607Y-67568915D01*
X107959840Y-67565482D01*
X108156014Y-67548319D01*
X108384269Y-67487159D01*
X108598436Y-67387291D01*
X108792007Y-67251751D01*
X108959101Y-67084657D01*
X109069336Y-66927224D01*
X109123913Y-66883600D01*
X109193411Y-66876406D01*
X109255766Y-66907929D01*
X109272486Y-66927225D01*
X109305678Y-66974629D01*
X109305679Y-66974629D01*
X109937529Y-66342779D01*
X109961113Y-66423100D01*
X110038845Y-66544054D01*
X110147506Y-66638208D01*
X110278291Y-66697936D01*
X110288072Y-66699342D01*
X109659231Y-67328181D01*
X109743027Y-67386855D01*
X109957113Y-67486685D01*
X109957122Y-67486689D01*
X110185279Y-67547823D01*
X110185290Y-67547825D01*
X110420604Y-67568413D01*
X110420608Y-67568413D01*
X110655921Y-67547825D01*
X110655932Y-67547823D01*
X110884089Y-67486689D01*
X110884098Y-67486685D01*
X111098184Y-67386856D01*
X111098188Y-67386854D01*
X111181979Y-67328182D01*
X111181979Y-67328181D01*
X110553139Y-66699342D01*
X110562921Y-66697936D01*
X110693706Y-66638208D01*
X110802367Y-66544054D01*
X110880099Y-66423100D01*
X110903682Y-66342780D01*
X111535531Y-66974629D01*
X111568725Y-66927224D01*
X111623302Y-66883599D01*
X111692800Y-66876405D01*
X111755155Y-66907928D01*
X111771875Y-66927224D01*
X111882106Y-67084651D01*
X111882111Y-67084657D01*
X112049205Y-67251751D01*
X112145990Y-67319521D01*
X112242771Y-67387288D01*
X112242773Y-67387289D01*
X112242776Y-67387291D01*
X112456943Y-67487159D01*
X112685198Y-67548319D01*
X112873524Y-67564795D01*
X112920605Y-67568915D01*
X112920606Y-67568915D01*
X112920607Y-67568915D01*
X112959840Y-67565482D01*
X113156014Y-67548319D01*
X113384269Y-67487159D01*
X113598436Y-67387291D01*
X113792007Y-67251751D01*
X113959101Y-67084657D01*
X114094641Y-66891086D01*
X114194509Y-66676919D01*
X114255669Y-66448664D01*
X114276265Y-66213256D01*
X114255669Y-65977848D01*
X114194509Y-65749593D01*
X114094641Y-65535427D01*
X114069337Y-65499288D01*
X113959100Y-65341853D01*
X113792008Y-65174762D01*
X113792001Y-65174757D01*
X113598440Y-65039223D01*
X113598436Y-65039221D01*
X113598434Y-65039220D01*
X113384269Y-64939353D01*
X113384265Y-64939352D01*
X113384261Y-64939350D01*
X113156019Y-64878194D01*
X113156009Y-64878192D01*
X112920607Y-64857597D01*
X112920605Y-64857597D01*
X112685202Y-64878192D01*
X112685192Y-64878194D01*
X112456950Y-64939350D01*
X112456941Y-64939354D01*
X112242777Y-65039220D01*
X112242775Y-65039221D01*
X112049203Y-65174761D01*
X111882114Y-65341850D01*
X111771875Y-65499288D01*
X111717298Y-65542912D01*
X111647799Y-65550105D01*
X111585445Y-65518583D01*
X111568725Y-65499287D01*
X111535532Y-65451882D01*
X111535531Y-65451881D01*
X110903682Y-66083730D01*
X110880099Y-66003412D01*
X110802367Y-65882458D01*
X110693706Y-65788304D01*
X110562921Y-65728576D01*
X110553139Y-65727169D01*
X111181979Y-65098329D01*
X111181979Y-65098328D01*
X111098189Y-65039658D01*
X111098185Y-65039656D01*
X110884098Y-64939826D01*
X110884089Y-64939822D01*
X110655932Y-64878688D01*
X110655921Y-64878686D01*
X110420608Y-64858099D01*
X110420604Y-64858099D01*
X110185290Y-64878686D01*
X110185279Y-64878688D01*
X109957122Y-64939822D01*
X109957113Y-64939826D01*
X109743025Y-65039657D01*
X109659231Y-65098328D01*
X110288072Y-65727169D01*
X110278291Y-65728576D01*
X110147506Y-65788304D01*
X110038845Y-65882458D01*
X109961113Y-66003412D01*
X109937529Y-66083732D01*
X109305678Y-65451881D01*
X109305677Y-65451882D01*
X109272485Y-65499287D01*
X109217908Y-65542912D01*
X109148410Y-65550106D01*
X109086055Y-65518583D01*
X109069336Y-65499288D01*
X108959101Y-65341855D01*
X108792007Y-65174761D01*
X108682851Y-65098329D01*
X108598440Y-65039223D01*
X108598436Y-65039221D01*
X108598434Y-65039220D01*
X108384269Y-64939353D01*
X108384265Y-64939352D01*
X108384261Y-64939350D01*
X108156019Y-64878194D01*
X108156009Y-64878192D01*
X107920607Y-64857597D01*
X107920605Y-64857597D01*
X107685202Y-64878192D01*
X107685192Y-64878194D01*
X107456950Y-64939350D01*
X107456941Y-64939354D01*
X107242777Y-65039220D01*
X107242775Y-65039221D01*
X107049203Y-65174761D01*
X106882111Y-65341853D01*
X106746571Y-65535425D01*
X106746570Y-65535427D01*
X106646704Y-65749591D01*
X106646700Y-65749600D01*
X106585544Y-65977842D01*
X106585542Y-65977852D01*
X106564947Y-66213255D01*
X106564947Y-66213256D01*
X102618640Y-66213256D01*
X102622812Y-64323529D01*
X102642645Y-64256534D01*
X102695550Y-64210896D01*
X102746663Y-64199804D01*
X108963222Y-64192551D01*
X129966701Y-64192551D01*
X130033740Y-64212236D01*
G37*
%TD.AperFunction*%
%TA.AperFunction,Conductor*%
G36*
X117073259Y-69087755D02*
G01*
X117015735Y-69200652D01*
X116995914Y-69325800D01*
X117015735Y-69450948D01*
X117073259Y-69563845D01*
X117085214Y-69575800D01*
X115176586Y-69575800D01*
X115188541Y-69563845D01*
X115246065Y-69450948D01*
X115265886Y-69325800D01*
X115246065Y-69200652D01*
X115188541Y-69087755D01*
X115176586Y-69075800D01*
X117085214Y-69075800D01*
X117073259Y-69087755D01*
G37*
%TD.AperFunction*%
%TD*%
M02*
