%TF.GenerationSoftware,KiCad,Pcbnew,7.0.6*%
%TF.CreationDate,2024-01-05T23:23:06+05:00*%
%TF.ProjectId,FSKmodem,46534b6d-6f64-4656-9d2e-6b696361645f,rev?*%
%TF.SameCoordinates,Original*%
%TF.FileFunction,Copper,L1,Top*%
%TF.FilePolarity,Positive*%
%FSLAX46Y46*%
G04 Gerber Fmt 4.6, Leading zero omitted, Abs format (unit mm)*
G04 Created by KiCad (PCBNEW 7.0.6) date 2024-01-05 23:23:06*
%MOMM*%
%LPD*%
G01*
G04 APERTURE LIST*
%TA.AperFunction,ComponentPad*%
%ADD10R,1.700000X1.700000*%
%TD*%
%TA.AperFunction,ComponentPad*%
%ADD11O,1.700000X1.700000*%
%TD*%
%TA.AperFunction,ComponentPad*%
%ADD12R,1.600000X1.600000*%
%TD*%
%TA.AperFunction,ComponentPad*%
%ADD13O,1.600000X1.600000*%
%TD*%
%TA.AperFunction,ComponentPad*%
%ADD14C,1.700000*%
%TD*%
%TA.AperFunction,Conductor*%
%ADD15C,0.600000*%
%TD*%
G04 APERTURE END LIST*
D10*
%TO.P,SV2,1,1*%
%TO.N,GND*%
X128975000Y-67282500D03*
D11*
%TO.P,SV2,2,2*%
%TO.N,Net-(IC1-TXD)*%
X128975000Y-69822500D03*
%TO.P,SV2,3,3*%
%TO.N,Net-(IC1-RXD)*%
X128975000Y-72362500D03*
%TO.P,SV2,4,4*%
%TO.N,+5V*%
X128975000Y-74902500D03*
%TD*%
D12*
%TO.P,IC1,1,VDD*%
%TO.N,+5V*%
X107240900Y-76945800D03*
D13*
%TO.P,IC1,2,CLK*%
%TO.N,unconnected-(IC1-CLK-Pad2)*%
X109780900Y-76945800D03*
%TO.P,IC1,3,CDT*%
%TO.N,unconnected-(IC1-CDT-Pad3)*%
X112320900Y-76945800D03*
%TO.P,IC1,4,RXA*%
%TO.N,Net-(IC1-RXA)*%
X114860900Y-76945800D03*
%TO.P,IC1,5,TRS*%
%TO.N,GND*%
X117400900Y-76945800D03*
%TO.P,IC1,6,RXT*%
%TO.N,unconnected-(IC1-RXT-Pad6)*%
X119940900Y-76945800D03*
%TO.P,IC1,7,RXB*%
%TO.N,Net-(IC1-RXB)*%
X122480900Y-76945800D03*
%TO.P,IC1,8,RXD*%
%TO.N,Net-(IC1-RXD)*%
X125020900Y-76945800D03*
%TO.P,IC1,9,VSS*%
%TO.N,GND*%
X125020900Y-69325800D03*
%TO.P,IC1,10,CDL*%
%TO.N,Net-(IC1-CDL)*%
X122480900Y-69325800D03*
%TO.P,IC1,11,TXA*%
%TO.N,Net-(IC1-TXA)*%
X119940900Y-69325800D03*
%TO.P,IC1,12,TXR2*%
%TO.N,GND*%
X117400900Y-69325800D03*
%TO.P,IC1,13,TXR1*%
X114860900Y-69325800D03*
%TO.P,IC1,14,TXD*%
%TO.N,Net-(IC1-TXD)*%
X112320900Y-69325800D03*
%TO.P,IC1,15,OSC1*%
%TO.N,Net-(IC1-OSC1)*%
X109780900Y-69325800D03*
%TO.P,IC1,16,OSC2*%
%TO.N,Net-(IC1-OSC2)*%
X107240900Y-69325800D03*
%TD*%
D11*
%TO.P,SV1,3,3*%
%TO.N,GND*%
X103825480Y-68448788D03*
%TO.P,SV1,2,2*%
%TO.N,Net-(C2-Pad2)*%
X103825480Y-70988788D03*
D10*
%TO.P,SV1,1,1*%
%TO.N,Net-(C1-Pad2)*%
X103825480Y-73528788D03*
%TD*%
D14*
%TO.P,Q1,1,1*%
%TO.N,Net-(IC1-OSC1)*%
X112920606Y-66213256D03*
%TO.P,Q1,2,VSS*%
%TO.N,GND*%
X110420606Y-66213256D03*
%TO.P,Q1,3,3*%
%TO.N,Net-(IC1-OSC2)*%
X107920606Y-66213256D03*
%TD*%
D15*
%TO.N,GND*%
X117400900Y-76945800D02*
X117400900Y-69325800D01*
%TO.N,Net-(IC1-RXD)*%
X125020900Y-76316600D02*
X125020900Y-76945800D01*
X128975000Y-72362500D02*
X125020900Y-76316600D01*
%TO.N,Net-(IC1-TXD)*%
X124924300Y-67221800D02*
X114424900Y-67221800D01*
X128975000Y-69822500D02*
X127525000Y-69822500D01*
X114424900Y-67221800D02*
X112320900Y-69325800D01*
X127525000Y-69822500D02*
X124924300Y-67221800D01*
%TO.N,Net-(IC1-OSC1)*%
X109808062Y-69325800D02*
X112920606Y-66213256D01*
X109780900Y-69325800D02*
X109808062Y-69325800D01*
%TO.N,Net-(IC1-OSC2)*%
X107240900Y-69325800D02*
X107240900Y-66892962D01*
X107240900Y-66892962D02*
X107920606Y-66213256D01*
%TD*%
%TA.AperFunction,Conductor*%
%TO.N,GND*%
G36*
X130033740Y-64212236D02*
G01*
X130079495Y-64265040D01*
X130090701Y-64316551D01*
X130090701Y-65819597D01*
X130071016Y-65886636D01*
X130018212Y-65932391D01*
X129949054Y-65942335D01*
X129938198Y-65940277D01*
X129932375Y-65938901D01*
X129872844Y-65932500D01*
X129225000Y-65932500D01*
X129225000Y-66846998D01*
X129117315Y-66797820D01*
X129010763Y-66782500D01*
X128939237Y-66782500D01*
X128832685Y-66797820D01*
X128724999Y-66846998D01*
X128725000Y-65932500D01*
X128077155Y-65932500D01*
X128017627Y-65938901D01*
X128017620Y-65938903D01*
X127882913Y-65989145D01*
X127882906Y-65989149D01*
X127767812Y-66075309D01*
X127767809Y-66075312D01*
X127681649Y-66190406D01*
X127681645Y-66190413D01*
X127631403Y-66325120D01*
X127631401Y-66325127D01*
X127625000Y-66384655D01*
X127625000Y-67032500D01*
X128541314Y-67032500D01*
X128515507Y-67072656D01*
X128475000Y-67210611D01*
X128475000Y-67354389D01*
X128515507Y-67492344D01*
X128541314Y-67532500D01*
X127625000Y-67532500D01*
X127625000Y-68180344D01*
X127631401Y-68239872D01*
X127631403Y-68239879D01*
X127681645Y-68374586D01*
X127681649Y-68374593D01*
X127767809Y-68489687D01*
X127767812Y-68489690D01*
X127882906Y-68575850D01*
X127882913Y-68575854D01*
X128014470Y-68624921D01*
X128070403Y-68666792D01*
X128094821Y-68732256D01*
X128079970Y-68800529D01*
X128058818Y-68828784D01*
X127948771Y-68938831D01*
X127887448Y-68972316D01*
X127817756Y-68967332D01*
X127773409Y-68938831D01*
X125426561Y-66591983D01*
X125391204Y-66569767D01*
X125385530Y-66565741D01*
X125352889Y-66539710D01*
X125315259Y-66521587D01*
X125309172Y-66518222D01*
X125273825Y-66496012D01*
X125234414Y-66482221D01*
X125227988Y-66479559D01*
X125190361Y-66461439D01*
X125149645Y-66452145D01*
X125142962Y-66450220D01*
X125103559Y-66436432D01*
X125062063Y-66431755D01*
X125055208Y-66430591D01*
X125014500Y-66421301D01*
X125014496Y-66421300D01*
X125014494Y-66421300D01*
X124969254Y-66421300D01*
X114515094Y-66421300D01*
X114393385Y-66421300D01*
X114326346Y-66401615D01*
X114280591Y-66348811D01*
X114269857Y-66286491D01*
X114276265Y-66213255D01*
X114264196Y-66075309D01*
X114255669Y-65977848D01*
X114194509Y-65749593D01*
X114094641Y-65535427D01*
X114069337Y-65499288D01*
X113959100Y-65341853D01*
X113792008Y-65174762D01*
X113792001Y-65174757D01*
X113598440Y-65039223D01*
X113598436Y-65039221D01*
X113598434Y-65039220D01*
X113384269Y-64939353D01*
X113384265Y-64939352D01*
X113384261Y-64939350D01*
X113156019Y-64878194D01*
X113156009Y-64878192D01*
X112920607Y-64857597D01*
X112920605Y-64857597D01*
X112685202Y-64878192D01*
X112685192Y-64878194D01*
X112456950Y-64939350D01*
X112456941Y-64939354D01*
X112242777Y-65039220D01*
X112242775Y-65039221D01*
X112049203Y-65174761D01*
X111882114Y-65341850D01*
X111771875Y-65499288D01*
X111717298Y-65542912D01*
X111647799Y-65550105D01*
X111585445Y-65518583D01*
X111568725Y-65499287D01*
X111535532Y-65451882D01*
X111535531Y-65451881D01*
X110903682Y-66083731D01*
X110880099Y-66003412D01*
X110802367Y-65882458D01*
X110693706Y-65788304D01*
X110562921Y-65728576D01*
X110553139Y-65727169D01*
X111181979Y-65098329D01*
X111181979Y-65098328D01*
X111098189Y-65039658D01*
X111098185Y-65039656D01*
X110884098Y-64939826D01*
X110884089Y-64939822D01*
X110655932Y-64878688D01*
X110655921Y-64878686D01*
X110420608Y-64858099D01*
X110420604Y-64858099D01*
X110185290Y-64878686D01*
X110185279Y-64878688D01*
X109957122Y-64939822D01*
X109957113Y-64939826D01*
X109743025Y-65039657D01*
X109659231Y-65098328D01*
X110288072Y-65727169D01*
X110278291Y-65728576D01*
X110147506Y-65788304D01*
X110038845Y-65882458D01*
X109961113Y-66003412D01*
X109937529Y-66083732D01*
X109305678Y-65451881D01*
X109305677Y-65451882D01*
X109272485Y-65499287D01*
X109217908Y-65542912D01*
X109148410Y-65550106D01*
X109086055Y-65518583D01*
X109069336Y-65499288D01*
X108959101Y-65341855D01*
X108792007Y-65174761D01*
X108682851Y-65098329D01*
X108598440Y-65039223D01*
X108598436Y-65039221D01*
X108598434Y-65039220D01*
X108384269Y-64939353D01*
X108384265Y-64939352D01*
X108384261Y-64939350D01*
X108156019Y-64878194D01*
X108156009Y-64878192D01*
X107920607Y-64857597D01*
X107920605Y-64857597D01*
X107685202Y-64878192D01*
X107685192Y-64878194D01*
X107456950Y-64939350D01*
X107456941Y-64939354D01*
X107242777Y-65039220D01*
X107242775Y-65039221D01*
X107049203Y-65174761D01*
X106882111Y-65341853D01*
X106746571Y-65535425D01*
X106746570Y-65535427D01*
X106646704Y-65749591D01*
X106646700Y-65749600D01*
X106585544Y-65977842D01*
X106585542Y-65977852D01*
X106564947Y-66213255D01*
X106564947Y-66213258D01*
X106579850Y-66383605D01*
X106566083Y-66452105D01*
X106561320Y-66460378D01*
X106558810Y-66464371D01*
X106540691Y-66501995D01*
X106537327Y-66508082D01*
X106515112Y-66543438D01*
X106515108Y-66543445D01*
X106501316Y-66582857D01*
X106498655Y-66589282D01*
X106480539Y-66626901D01*
X106471244Y-66667621D01*
X106469319Y-66674303D01*
X106455532Y-66713706D01*
X106450855Y-66755197D01*
X106449691Y-66762051D01*
X106440400Y-66802768D01*
X106440400Y-68235751D01*
X106420715Y-68302790D01*
X106404081Y-68323432D01*
X106240854Y-68486658D01*
X106110332Y-68673065D01*
X106110331Y-68673067D01*
X106014161Y-68879302D01*
X106014158Y-68879311D01*
X105955266Y-69099102D01*
X105955264Y-69099113D01*
X105935432Y-69325798D01*
X105935432Y-69325801D01*
X105955264Y-69552486D01*
X105955266Y-69552497D01*
X106014158Y-69772288D01*
X106014161Y-69772297D01*
X106110331Y-69978532D01*
X106110332Y-69978534D01*
X106240854Y-70164941D01*
X106401758Y-70325845D01*
X106401761Y-70325847D01*
X106588166Y-70456368D01*
X106794404Y-70552539D01*
X106794409Y-70552540D01*
X106794411Y-70552541D01*
X106839954Y-70564744D01*
X107014208Y-70611435D01*
X107176130Y-70625601D01*
X107240898Y-70631268D01*
X107240900Y-70631268D01*
X107240902Y-70631268D01*
X107297573Y-70626309D01*
X107467592Y-70611435D01*
X107687396Y-70552539D01*
X107893634Y-70456368D01*
X108080039Y-70325847D01*
X108240947Y-70164939D01*
X108371468Y-69978534D01*
X108398518Y-69920524D01*
X108444690Y-69868085D01*
X108511883Y-69848933D01*
X108578765Y-69869148D01*
X108623282Y-69920525D01*
X108650329Y-69978528D01*
X108650332Y-69978534D01*
X108780854Y-70164941D01*
X108941758Y-70325845D01*
X108941761Y-70325847D01*
X109128166Y-70456368D01*
X109334404Y-70552539D01*
X109334409Y-70552540D01*
X109334411Y-70552541D01*
X109379954Y-70564744D01*
X109554208Y-70611435D01*
X109716130Y-70625601D01*
X109780898Y-70631268D01*
X109780900Y-70631268D01*
X109780902Y-70631268D01*
X109837572Y-70626309D01*
X110007592Y-70611435D01*
X110227396Y-70552539D01*
X110433634Y-70456368D01*
X110620039Y-70325847D01*
X110780947Y-70164939D01*
X110911468Y-69978534D01*
X110938518Y-69920524D01*
X110984690Y-69868085D01*
X111051883Y-69848933D01*
X111118765Y-69869148D01*
X111163282Y-69920525D01*
X111190329Y-69978528D01*
X111190332Y-69978534D01*
X111320854Y-70164941D01*
X111481758Y-70325845D01*
X111481761Y-70325847D01*
X111668166Y-70456368D01*
X111874404Y-70552539D01*
X111874409Y-70552540D01*
X111874411Y-70552541D01*
X111919954Y-70564744D01*
X112094208Y-70611435D01*
X112256130Y-70625601D01*
X112320898Y-70631268D01*
X112320900Y-70631268D01*
X112320902Y-70631268D01*
X112377573Y-70626309D01*
X112547592Y-70611435D01*
X112767396Y-70552539D01*
X112973634Y-70456368D01*
X113160039Y-70325847D01*
X113320947Y-70164939D01*
X113451468Y-69978534D01*
X113478795Y-69919929D01*
X113524964Y-69867495D01*
X113592157Y-69848342D01*
X113659039Y-69868557D01*
X113703557Y-69919933D01*
X113730765Y-69978282D01*
X113861242Y-70164620D01*
X114022079Y-70325457D01*
X114208417Y-70455934D01*
X114414573Y-70552065D01*
X114414582Y-70552069D01*
X114610899Y-70604672D01*
X114610900Y-70604671D01*
X114610900Y-69641486D01*
X114622855Y-69653441D01*
X114735752Y-69710965D01*
X114829419Y-69725800D01*
X114892381Y-69725800D01*
X114986048Y-69710965D01*
X115098945Y-69653441D01*
X115110900Y-69641486D01*
X115110900Y-70604672D01*
X115307217Y-70552069D01*
X115307226Y-70552065D01*
X115513382Y-70455934D01*
X115699720Y-70325457D01*
X115860557Y-70164620D01*
X115991034Y-69978281D01*
X115991035Y-69978279D01*
X116018518Y-69919343D01*
X116064690Y-69866903D01*
X116131883Y-69847751D01*
X116198764Y-69867966D01*
X116243282Y-69919343D01*
X116270764Y-69978279D01*
X116270765Y-69978281D01*
X116401242Y-70164620D01*
X116562079Y-70325457D01*
X116748417Y-70455934D01*
X116954573Y-70552065D01*
X116954582Y-70552069D01*
X117150899Y-70604672D01*
X117150900Y-70604671D01*
X117150900Y-69641486D01*
X117162855Y-69653441D01*
X117275752Y-69710965D01*
X117369419Y-69725800D01*
X117432381Y-69725800D01*
X117526048Y-69710965D01*
X117638945Y-69653441D01*
X117650900Y-69641485D01*
X117650900Y-70604672D01*
X117847217Y-70552069D01*
X117847226Y-70552065D01*
X118053382Y-70455934D01*
X118239720Y-70325457D01*
X118400557Y-70164620D01*
X118531032Y-69978284D01*
X118558241Y-69919934D01*
X118604413Y-69867495D01*
X118671607Y-69848342D01*
X118738488Y-69868557D01*
X118783005Y-69919932D01*
X118797163Y-69950293D01*
X118810331Y-69978532D01*
X118810332Y-69978534D01*
X118940854Y-70164941D01*
X119101758Y-70325845D01*
X119101761Y-70325847D01*
X119288166Y-70456368D01*
X119494404Y-70552539D01*
X119494409Y-70552540D01*
X119494411Y-70552541D01*
X119539954Y-70564744D01*
X119714208Y-70611435D01*
X119876130Y-70625601D01*
X119940898Y-70631268D01*
X119940900Y-70631268D01*
X119940902Y-70631268D01*
X119997572Y-70626309D01*
X120167592Y-70611435D01*
X120387396Y-70552539D01*
X120593634Y-70456368D01*
X120780039Y-70325847D01*
X120940947Y-70164939D01*
X121071468Y-69978534D01*
X121098519Y-69920521D01*
X121144688Y-69868086D01*
X121211881Y-69848933D01*
X121278762Y-69869148D01*
X121323280Y-69920522D01*
X121350332Y-69978534D01*
X121405910Y-70057908D01*
X121480854Y-70164941D01*
X121641758Y-70325845D01*
X121641761Y-70325847D01*
X121828166Y-70456368D01*
X122034404Y-70552539D01*
X122034409Y-70552540D01*
X122034411Y-70552541D01*
X122079954Y-70564744D01*
X122254208Y-70611435D01*
X122416130Y-70625601D01*
X122480898Y-70631268D01*
X122480900Y-70631268D01*
X122480902Y-70631268D01*
X122537573Y-70626309D01*
X122707592Y-70611435D01*
X122927396Y-70552539D01*
X123133634Y-70456368D01*
X123320039Y-70325847D01*
X123480947Y-70164939D01*
X123611468Y-69978534D01*
X123638795Y-69919929D01*
X123684964Y-69867495D01*
X123752157Y-69848342D01*
X123819039Y-69868557D01*
X123863557Y-69919933D01*
X123890765Y-69978282D01*
X124021242Y-70164620D01*
X124182079Y-70325457D01*
X124368417Y-70455934D01*
X124574573Y-70552065D01*
X124574582Y-70552069D01*
X124770899Y-70604672D01*
X124770900Y-70604671D01*
X124770900Y-69641485D01*
X124782855Y-69653441D01*
X124895752Y-69710965D01*
X124989419Y-69725800D01*
X125052381Y-69725800D01*
X125146048Y-69710965D01*
X125258945Y-69653441D01*
X125270900Y-69641485D01*
X125270900Y-70604672D01*
X125467217Y-70552069D01*
X125467226Y-70552065D01*
X125673382Y-70455934D01*
X125859720Y-70325457D01*
X126020557Y-70164620D01*
X126151032Y-69978284D01*
X126202656Y-69867575D01*
X126248828Y-69815136D01*
X126316022Y-69795983D01*
X126382903Y-69816198D01*
X126402715Y-69832294D01*
X126895183Y-70324762D01*
X126912619Y-70342198D01*
X126912625Y-70342203D01*
X127022738Y-70452316D01*
X127058089Y-70474528D01*
X127063765Y-70478555D01*
X127096411Y-70504590D01*
X127096412Y-70504591D01*
X127117548Y-70514769D01*
X127134035Y-70522708D01*
X127140112Y-70526067D01*
X127157635Y-70537077D01*
X127175477Y-70548289D01*
X127214891Y-70562081D01*
X127221320Y-70564744D01*
X127258941Y-70582861D01*
X127299641Y-70592150D01*
X127306328Y-70594076D01*
X127336608Y-70604671D01*
X127345745Y-70607868D01*
X127387241Y-70612543D01*
X127394093Y-70613707D01*
X127434806Y-70623000D01*
X127480046Y-70623000D01*
X127822309Y-70623000D01*
X127889348Y-70642685D01*
X127923884Y-70675876D01*
X127936508Y-70693905D01*
X128103597Y-70860993D01*
X128103603Y-70860998D01*
X128289158Y-70990925D01*
X128332783Y-71045502D01*
X128339977Y-71115000D01*
X128308454Y-71177355D01*
X128289158Y-71194075D01*
X128103597Y-71324005D01*
X127936505Y-71491097D01*
X127800965Y-71684669D01*
X127800964Y-71684671D01*
X127701098Y-71898835D01*
X127701094Y-71898844D01*
X127639938Y-72127086D01*
X127639936Y-72127096D01*
X127619341Y-72362499D01*
X127619341Y-72362502D01*
X127632288Y-72510491D01*
X127618521Y-72578991D01*
X127596441Y-72608979D01*
X126823674Y-73381747D01*
X124518638Y-75686783D01*
X124518638Y-75686784D01*
X124424890Y-75780529D01*
X124389620Y-75805227D01*
X124368162Y-75815233D01*
X124181758Y-75945754D01*
X124020854Y-76106658D01*
X123890332Y-76293065D01*
X123890330Y-76293068D01*
X123863280Y-76351077D01*
X123817107Y-76403515D01*
X123749913Y-76422666D01*
X123683032Y-76402449D01*
X123638519Y-76351077D01*
X123611468Y-76293066D01*
X123585496Y-76255973D01*
X123480945Y-76106658D01*
X123320041Y-75945754D01*
X123133634Y-75815232D01*
X123133632Y-75815231D01*
X122927397Y-75719061D01*
X122927388Y-75719058D01*
X122707597Y-75660166D01*
X122707593Y-75660165D01*
X122707592Y-75660165D01*
X122707591Y-75660164D01*
X122707586Y-75660164D01*
X122480902Y-75640332D01*
X122480898Y-75640332D01*
X122254213Y-75660164D01*
X122254202Y-75660166D01*
X122034411Y-75719058D01*
X122034402Y-75719061D01*
X121828167Y-75815231D01*
X121828165Y-75815232D01*
X121641758Y-75945754D01*
X121480854Y-76106658D01*
X121350332Y-76293065D01*
X121350330Y-76293068D01*
X121323280Y-76351077D01*
X121277107Y-76403515D01*
X121209913Y-76422666D01*
X121143032Y-76402449D01*
X121098519Y-76351077D01*
X121071468Y-76293066D01*
X121045496Y-76255973D01*
X120940945Y-76106658D01*
X120780041Y-75945754D01*
X120593634Y-75815232D01*
X120593632Y-75815231D01*
X120387397Y-75719061D01*
X120387388Y-75719058D01*
X120167597Y-75660166D01*
X120167593Y-75660165D01*
X120167592Y-75660165D01*
X120167591Y-75660164D01*
X120167586Y-75660164D01*
X119940902Y-75640332D01*
X119940898Y-75640332D01*
X119714213Y-75660164D01*
X119714202Y-75660166D01*
X119494411Y-75719058D01*
X119494402Y-75719061D01*
X119288167Y-75815231D01*
X119288165Y-75815232D01*
X119101758Y-75945754D01*
X118940854Y-76106658D01*
X118810334Y-76293063D01*
X118810332Y-76293066D01*
X118783283Y-76351074D01*
X118783006Y-76351667D01*
X118736833Y-76404106D01*
X118669639Y-76423257D01*
X118602758Y-76403041D01*
X118558242Y-76351665D01*
X118531035Y-76293320D01*
X118531034Y-76293318D01*
X118400557Y-76106979D01*
X118239720Y-75946142D01*
X118053382Y-75815665D01*
X117847228Y-75719534D01*
X117650900Y-75666927D01*
X117650900Y-76630114D01*
X117638945Y-76618159D01*
X117526048Y-76560635D01*
X117432381Y-76545800D01*
X117369419Y-76545800D01*
X117275752Y-76560635D01*
X117162855Y-76618159D01*
X117150900Y-76630113D01*
X117150900Y-75666927D01*
X116954571Y-75719534D01*
X116748417Y-75815665D01*
X116562079Y-75946142D01*
X116401242Y-76106979D01*
X116270767Y-76293315D01*
X116243557Y-76351667D01*
X116197384Y-76404106D01*
X116130190Y-76423257D01*
X116063309Y-76403041D01*
X116018793Y-76351665D01*
X116018517Y-76351074D01*
X115991468Y-76293066D01*
X115860947Y-76106661D01*
X115860945Y-76106658D01*
X115700041Y-75945754D01*
X115513634Y-75815232D01*
X115513632Y-75815231D01*
X115307397Y-75719061D01*
X115307388Y-75719058D01*
X115087597Y-75660166D01*
X115087593Y-75660165D01*
X115087592Y-75660165D01*
X115087591Y-75660164D01*
X115087586Y-75660164D01*
X114860902Y-75640332D01*
X114860898Y-75640332D01*
X114634213Y-75660164D01*
X114634202Y-75660166D01*
X114414411Y-75719058D01*
X114414402Y-75719061D01*
X114208167Y-75815231D01*
X114208165Y-75815232D01*
X114021758Y-75945754D01*
X113860854Y-76106658D01*
X113730332Y-76293065D01*
X113730331Y-76293067D01*
X113703282Y-76351075D01*
X113657109Y-76403514D01*
X113589916Y-76422666D01*
X113523035Y-76402450D01*
X113478518Y-76351075D01*
X113451586Y-76293320D01*
X113451468Y-76293066D01*
X113320947Y-76106661D01*
X113320945Y-76106658D01*
X113160041Y-75945754D01*
X112973634Y-75815232D01*
X112973632Y-75815231D01*
X112767397Y-75719061D01*
X112767388Y-75719058D01*
X112547597Y-75660166D01*
X112547593Y-75660165D01*
X112547592Y-75660165D01*
X112547591Y-75660164D01*
X112547586Y-75660164D01*
X112320902Y-75640332D01*
X112320898Y-75640332D01*
X112094213Y-75660164D01*
X112094202Y-75660166D01*
X111874411Y-75719058D01*
X111874402Y-75719061D01*
X111668167Y-75815231D01*
X111668165Y-75815232D01*
X111481758Y-75945754D01*
X111320854Y-76106658D01*
X111190332Y-76293065D01*
X111190331Y-76293067D01*
X111163282Y-76351075D01*
X111117109Y-76403514D01*
X111049916Y-76422666D01*
X110983035Y-76402450D01*
X110938518Y-76351075D01*
X110911586Y-76293320D01*
X110911468Y-76293066D01*
X110780947Y-76106661D01*
X110780945Y-76106658D01*
X110620041Y-75945754D01*
X110433634Y-75815232D01*
X110433632Y-75815231D01*
X110227397Y-75719061D01*
X110227388Y-75719058D01*
X110007597Y-75660166D01*
X110007593Y-75660165D01*
X110007592Y-75660165D01*
X110007591Y-75660164D01*
X110007586Y-75660164D01*
X109780902Y-75640332D01*
X109780898Y-75640332D01*
X109554213Y-75660164D01*
X109554202Y-75660166D01*
X109334411Y-75719058D01*
X109334402Y-75719061D01*
X109128167Y-75815231D01*
X109128165Y-75815232D01*
X108941758Y-75945754D01*
X108780854Y-76106658D01*
X108763625Y-76131264D01*
X108709047Y-76174888D01*
X108639548Y-76182080D01*
X108577194Y-76150557D01*
X108541782Y-76090326D01*
X108538761Y-76073391D01*
X108534991Y-76038316D01*
X108484697Y-75903471D01*
X108484693Y-75903464D01*
X108398447Y-75788255D01*
X108398444Y-75788252D01*
X108283235Y-75702006D01*
X108283228Y-75702002D01*
X108148382Y-75651708D01*
X108148383Y-75651708D01*
X108088783Y-75645301D01*
X108088781Y-75645300D01*
X108088773Y-75645300D01*
X108088764Y-75645300D01*
X106393029Y-75645300D01*
X106393023Y-75645301D01*
X106333416Y-75651708D01*
X106198571Y-75702002D01*
X106198564Y-75702006D01*
X106083355Y-75788252D01*
X106083352Y-75788255D01*
X105997106Y-75903464D01*
X105997102Y-75903471D01*
X105946808Y-76038317D01*
X105940401Y-76097916D01*
X105940400Y-76097935D01*
X105940400Y-77793670D01*
X105940401Y-77793676D01*
X105946808Y-77853283D01*
X105997102Y-77988128D01*
X105997106Y-77988135D01*
X106083352Y-78103344D01*
X106083355Y-78103347D01*
X106198564Y-78189593D01*
X106198571Y-78189597D01*
X106333417Y-78239891D01*
X106333416Y-78239891D01*
X106340344Y-78240635D01*
X106393027Y-78246300D01*
X108088772Y-78246299D01*
X108148383Y-78239891D01*
X108283231Y-78189596D01*
X108398446Y-78103346D01*
X108484696Y-77988131D01*
X108534991Y-77853283D01*
X108538762Y-77818201D01*
X108565499Y-77753655D01*
X108622890Y-77713806D01*
X108692716Y-77711311D01*
X108752805Y-77746963D01*
X108763626Y-77760336D01*
X108780856Y-77784943D01*
X108941758Y-77945845D01*
X108941761Y-77945847D01*
X109128166Y-78076368D01*
X109334404Y-78172539D01*
X109554208Y-78231435D01*
X109716130Y-78245601D01*
X109780898Y-78251268D01*
X109780900Y-78251268D01*
X109780902Y-78251268D01*
X109837707Y-78246298D01*
X110007592Y-78231435D01*
X110227396Y-78172539D01*
X110433634Y-78076368D01*
X110620039Y-77945847D01*
X110780947Y-77784939D01*
X110911468Y-77598534D01*
X110938518Y-77540524D01*
X110984690Y-77488085D01*
X111051883Y-77468933D01*
X111118765Y-77489148D01*
X111163282Y-77540525D01*
X111190329Y-77598528D01*
X111190332Y-77598534D01*
X111320854Y-77784941D01*
X111481758Y-77945845D01*
X111481761Y-77945847D01*
X111668166Y-78076368D01*
X111874404Y-78172539D01*
X112094208Y-78231435D01*
X112256130Y-78245601D01*
X112320898Y-78251268D01*
X112320900Y-78251268D01*
X112320902Y-78251268D01*
X112377707Y-78246298D01*
X112547592Y-78231435D01*
X112767396Y-78172539D01*
X112973634Y-78076368D01*
X113160039Y-77945847D01*
X113320947Y-77784939D01*
X113451468Y-77598534D01*
X113478518Y-77540524D01*
X113524690Y-77488085D01*
X113591883Y-77468933D01*
X113658765Y-77489148D01*
X113703282Y-77540525D01*
X113730329Y-77598528D01*
X113730332Y-77598534D01*
X113860854Y-77784941D01*
X114021758Y-77945845D01*
X114021761Y-77945847D01*
X114208166Y-78076368D01*
X114414404Y-78172539D01*
X114634208Y-78231435D01*
X114796130Y-78245601D01*
X114860898Y-78251268D01*
X114860900Y-78251268D01*
X114860902Y-78251268D01*
X114917707Y-78246298D01*
X115087592Y-78231435D01*
X115307396Y-78172539D01*
X115513634Y-78076368D01*
X115700039Y-77945847D01*
X115860947Y-77784939D01*
X115991468Y-77598534D01*
X116018795Y-77539929D01*
X116064964Y-77487495D01*
X116132157Y-77468342D01*
X116199039Y-77488557D01*
X116243557Y-77539933D01*
X116270765Y-77598282D01*
X116401242Y-77784620D01*
X116562079Y-77945457D01*
X116748417Y-78075934D01*
X116954573Y-78172065D01*
X116954582Y-78172069D01*
X117150899Y-78224672D01*
X117150900Y-78224671D01*
X117150900Y-77261486D01*
X117162855Y-77273441D01*
X117275752Y-77330965D01*
X117369419Y-77345800D01*
X117432381Y-77345800D01*
X117526048Y-77330965D01*
X117638945Y-77273441D01*
X117650900Y-77261486D01*
X117650900Y-78224672D01*
X117847217Y-78172069D01*
X117847226Y-78172065D01*
X118053382Y-78075934D01*
X118239720Y-77945457D01*
X118400557Y-77784620D01*
X118531032Y-77598284D01*
X118558241Y-77539934D01*
X118604413Y-77487495D01*
X118671607Y-77468342D01*
X118738488Y-77488557D01*
X118783006Y-77539933D01*
X118810331Y-77598532D01*
X118810332Y-77598534D01*
X118940854Y-77784941D01*
X119101758Y-77945845D01*
X119101761Y-77945847D01*
X119288166Y-78076368D01*
X119494404Y-78172539D01*
X119714208Y-78231435D01*
X119876130Y-78245601D01*
X119940898Y-78251268D01*
X119940900Y-78251268D01*
X119940902Y-78251268D01*
X119997707Y-78246298D01*
X120167592Y-78231435D01*
X120387396Y-78172539D01*
X120593634Y-78076368D01*
X120780039Y-77945847D01*
X120940947Y-77784939D01*
X121071468Y-77598534D01*
X121098518Y-77540524D01*
X121144690Y-77488085D01*
X121211883Y-77468933D01*
X121278765Y-77489148D01*
X121323282Y-77540525D01*
X121350329Y-77598528D01*
X121350332Y-77598534D01*
X121480854Y-77784941D01*
X121641758Y-77945845D01*
X121641761Y-77945847D01*
X121828166Y-78076368D01*
X122034404Y-78172539D01*
X122254208Y-78231435D01*
X122416130Y-78245601D01*
X122480898Y-78251268D01*
X122480900Y-78251268D01*
X122480902Y-78251268D01*
X122537707Y-78246298D01*
X122707592Y-78231435D01*
X122927396Y-78172539D01*
X123133634Y-78076368D01*
X123320039Y-77945847D01*
X123480947Y-77784939D01*
X123611468Y-77598534D01*
X123638518Y-77540524D01*
X123684690Y-77488085D01*
X123751883Y-77468933D01*
X123818765Y-77489148D01*
X123863282Y-77540525D01*
X123890329Y-77598528D01*
X123890332Y-77598534D01*
X124020854Y-77784941D01*
X124181758Y-77945845D01*
X124181761Y-77945847D01*
X124368166Y-78076368D01*
X124574404Y-78172539D01*
X124794208Y-78231435D01*
X124956130Y-78245601D01*
X125020898Y-78251268D01*
X125020900Y-78251268D01*
X125020902Y-78251268D01*
X125077707Y-78246298D01*
X125247592Y-78231435D01*
X125467396Y-78172539D01*
X125673634Y-78076368D01*
X125860039Y-77945847D01*
X126020947Y-77784939D01*
X126151468Y-77598534D01*
X126247639Y-77392296D01*
X126306535Y-77172492D01*
X126326368Y-76945800D01*
X126306535Y-76719108D01*
X126247639Y-76499304D01*
X126196125Y-76388834D01*
X126185634Y-76319757D01*
X126214154Y-76255973D01*
X126220814Y-76248762D01*
X127427106Y-75042470D01*
X127488427Y-75008987D01*
X127558119Y-75013971D01*
X127614052Y-75055843D01*
X127638313Y-75119345D01*
X127639936Y-75137903D01*
X127639938Y-75137913D01*
X127701094Y-75366155D01*
X127701096Y-75366159D01*
X127701097Y-75366163D01*
X127800965Y-75580329D01*
X127800965Y-75580330D01*
X127800967Y-75580334D01*
X127898103Y-75719058D01*
X127936505Y-75773901D01*
X128103599Y-75940995D01*
X128110396Y-75945754D01*
X128297165Y-76076532D01*
X128297167Y-76076533D01*
X128297170Y-76076535D01*
X128511337Y-76176403D01*
X128739592Y-76237563D01*
X128927918Y-76254039D01*
X128974999Y-76258159D01*
X128975000Y-76258159D01*
X128975001Y-76258159D01*
X129014234Y-76254726D01*
X129210408Y-76237563D01*
X129438663Y-76176403D01*
X129652830Y-76076535D01*
X129846401Y-75940995D01*
X129879019Y-75908376D01*
X129940343Y-75874891D01*
X130010035Y-75879875D01*
X130065968Y-75921747D01*
X130090385Y-75987211D01*
X130090701Y-75996057D01*
X130090701Y-78567551D01*
X130071016Y-78634590D01*
X130018212Y-78680345D01*
X129966701Y-78691551D01*
X102715701Y-78691551D01*
X102648662Y-78671866D01*
X102602907Y-78619062D01*
X102591701Y-78567551D01*
X102591701Y-74948420D01*
X102611386Y-74881381D01*
X102664190Y-74835626D01*
X102733348Y-74825682D01*
X102759027Y-74832236D01*
X102867997Y-74872879D01*
X102927607Y-74879288D01*
X104723352Y-74879287D01*
X104782963Y-74872879D01*
X104917811Y-74822584D01*
X105033026Y-74736334D01*
X105119276Y-74621119D01*
X105169571Y-74486271D01*
X105175980Y-74426661D01*
X105175979Y-72630916D01*
X105169571Y-72571305D01*
X105119276Y-72436457D01*
X105119275Y-72436456D01*
X105119273Y-72436452D01*
X105033027Y-72321243D01*
X105033024Y-72321240D01*
X104917815Y-72234994D01*
X104917808Y-72234990D01*
X104786397Y-72185977D01*
X104730463Y-72144106D01*
X104706046Y-72078641D01*
X104720898Y-72010368D01*
X104742043Y-71982120D01*
X104863975Y-71860189D01*
X104999515Y-71666618D01*
X105099383Y-71452451D01*
X105160543Y-71224196D01*
X105181139Y-70988788D01*
X105160543Y-70753380D01*
X105106729Y-70552541D01*
X105099385Y-70525132D01*
X105099384Y-70525131D01*
X105099383Y-70525125D01*
X104999515Y-70310959D01*
X104897272Y-70164939D01*
X104863974Y-70117385D01*
X104696882Y-69950294D01*
X104696881Y-69950293D01*
X104510885Y-69820057D01*
X104467261Y-69765480D01*
X104460068Y-69695981D01*
X104491590Y-69633627D01*
X104510885Y-69616907D01*
X104696562Y-69486893D01*
X104863585Y-69319870D01*
X104999080Y-69126366D01*
X105098909Y-68912280D01*
X105098912Y-68912274D01*
X105156116Y-68698788D01*
X104259166Y-68698788D01*
X104284973Y-68658632D01*
X104325480Y-68520677D01*
X104325480Y-68376899D01*
X104284973Y-68238944D01*
X104259166Y-68198788D01*
X105156116Y-68198788D01*
X105156115Y-68198787D01*
X105098912Y-67985301D01*
X105098909Y-67985295D01*
X104999080Y-67771210D01*
X104999079Y-67771208D01*
X104863593Y-67577714D01*
X104863588Y-67577708D01*
X104696562Y-67410682D01*
X104503058Y-67275187D01*
X104288972Y-67175358D01*
X104288966Y-67175355D01*
X104075480Y-67118152D01*
X104075479Y-67118152D01*
X104075479Y-68013286D01*
X103967795Y-67964108D01*
X103861243Y-67948788D01*
X103789717Y-67948788D01*
X103683165Y-67964108D01*
X103575479Y-68013286D01*
X103575479Y-67118152D01*
X103575478Y-67118152D01*
X103361985Y-67175358D01*
X103147902Y-67275187D01*
X103147900Y-67275188D01*
X102954406Y-67410674D01*
X102845237Y-67519843D01*
X102783914Y-67553327D01*
X102714222Y-67548343D01*
X102658289Y-67506471D01*
X102633872Y-67441007D01*
X102633560Y-67431377D01*
X102648943Y-65098328D01*
X102654103Y-64315733D01*
X102674229Y-64248825D01*
X102727333Y-64203419D01*
X102778100Y-64192551D01*
X129966701Y-64192551D01*
X130033740Y-64212236D01*
G37*
%TD.AperFunction*%
%TA.AperFunction,Conductor*%
G36*
X117073259Y-69087755D02*
G01*
X117015735Y-69200652D01*
X116995914Y-69325800D01*
X117015735Y-69450948D01*
X117073259Y-69563845D01*
X117085214Y-69575800D01*
X115176586Y-69575800D01*
X115188541Y-69563845D01*
X115246065Y-69450948D01*
X115265886Y-69325800D01*
X115246065Y-69200652D01*
X115188541Y-69087755D01*
X115176586Y-69075800D01*
X117085214Y-69075800D01*
X117073259Y-69087755D01*
G37*
%TD.AperFunction*%
%TA.AperFunction,Conductor*%
G36*
X109961113Y-66423100D02*
G01*
X110038845Y-66544054D01*
X110147506Y-66638208D01*
X110278291Y-66697936D01*
X110288072Y-66699342D01*
X109659231Y-67328181D01*
X109743027Y-67386855D01*
X109957113Y-67486685D01*
X109957122Y-67486689D01*
X110189724Y-67549014D01*
X110249385Y-67585379D01*
X110279914Y-67648226D01*
X110271619Y-67717601D01*
X110245312Y-67756470D01*
X110006203Y-67995579D01*
X109944880Y-68029064D01*
X109907715Y-68031426D01*
X109780902Y-68020332D01*
X109780898Y-68020332D01*
X109554213Y-68040164D01*
X109554202Y-68040166D01*
X109334411Y-68099058D01*
X109334402Y-68099061D01*
X109128167Y-68195231D01*
X109128165Y-68195232D01*
X108941758Y-68325754D01*
X108780854Y-68486658D01*
X108650332Y-68673065D01*
X108650331Y-68673067D01*
X108623282Y-68731075D01*
X108577109Y-68783514D01*
X108509916Y-68802666D01*
X108443035Y-68782450D01*
X108398518Y-68731075D01*
X108371586Y-68673320D01*
X108371468Y-68673066D01*
X108240947Y-68486661D01*
X108240945Y-68486658D01*
X108077719Y-68323432D01*
X108044234Y-68262109D01*
X108041400Y-68235751D01*
X108041400Y-67671971D01*
X108061085Y-67604932D01*
X108113889Y-67559177D01*
X108150722Y-67549464D01*
X108150686Y-67549258D01*
X108153154Y-67548822D01*
X108154594Y-67548443D01*
X108156014Y-67548319D01*
X108384269Y-67487159D01*
X108598436Y-67387291D01*
X108792007Y-67251751D01*
X108959101Y-67084657D01*
X109069336Y-66927224D01*
X109123913Y-66883600D01*
X109193411Y-66876406D01*
X109255766Y-66907929D01*
X109272486Y-66927225D01*
X109305678Y-66974629D01*
X109305679Y-66974629D01*
X109937529Y-66342779D01*
X109961113Y-66423100D01*
G37*
%TD.AperFunction*%
%TD*%
M02*
