%TF.GenerationSoftware,KiCad,Pcbnew,7.0.6*%
%TF.CreationDate,2024-01-05T23:23:07+05:00*%
%TF.ProjectId,FSKmodem,46534b6d-6f64-4656-9d2e-6b696361645f,rev?*%
%TF.SameCoordinates,Original*%
%TF.FileFunction,Legend,Top*%
%TF.FilePolarity,Positive*%
%FSLAX46Y46*%
G04 Gerber Fmt 4.6, Leading zero omitted, Abs format (unit mm)*
G04 Created by KiCad (PCBNEW 7.0.6) date 2024-01-05 23:23:07*
%MOMM*%
%LPD*%
G01*
G04 APERTURE LIST*
%ADD10C,0.150000*%
%ADD11C,0.120000*%
G04 APERTURE END LIST*
D10*
X127521383Y-65459749D02*
X127664240Y-65507368D01*
X127664240Y-65507368D02*
X127902335Y-65507368D01*
X127902335Y-65507368D02*
X127997573Y-65459749D01*
X127997573Y-65459749D02*
X128045192Y-65412129D01*
X128045192Y-65412129D02*
X128092811Y-65316891D01*
X128092811Y-65316891D02*
X128092811Y-65221653D01*
X128092811Y-65221653D02*
X128045192Y-65126415D01*
X128045192Y-65126415D02*
X127997573Y-65078796D01*
X127997573Y-65078796D02*
X127902335Y-65031177D01*
X127902335Y-65031177D02*
X127711859Y-64983558D01*
X127711859Y-64983558D02*
X127616621Y-64935939D01*
X127616621Y-64935939D02*
X127569002Y-64888320D01*
X127569002Y-64888320D02*
X127521383Y-64793082D01*
X127521383Y-64793082D02*
X127521383Y-64697844D01*
X127521383Y-64697844D02*
X127569002Y-64602606D01*
X127569002Y-64602606D02*
X127616621Y-64554987D01*
X127616621Y-64554987D02*
X127711859Y-64507368D01*
X127711859Y-64507368D02*
X127949954Y-64507368D01*
X127949954Y-64507368D02*
X128092811Y-64554987D01*
X128378526Y-64507368D02*
X128711859Y-65507368D01*
X128711859Y-65507368D02*
X129045192Y-64507368D01*
X129330907Y-64602606D02*
X129378526Y-64554987D01*
X129378526Y-64554987D02*
X129473764Y-64507368D01*
X129473764Y-64507368D02*
X129711859Y-64507368D01*
X129711859Y-64507368D02*
X129807097Y-64554987D01*
X129807097Y-64554987D02*
X129854716Y-64602606D01*
X129854716Y-64602606D02*
X129902335Y-64697844D01*
X129902335Y-64697844D02*
X129902335Y-64793082D01*
X129902335Y-64793082D02*
X129854716Y-64935939D01*
X129854716Y-64935939D02*
X129283288Y-65507368D01*
X129283288Y-65507368D02*
X129902335Y-65507368D01*
X120623511Y-73964820D02*
X119623511Y-73964820D01*
X120528272Y-72917202D02*
X120575892Y-72964821D01*
X120575892Y-72964821D02*
X120623511Y-73107678D01*
X120623511Y-73107678D02*
X120623511Y-73202916D01*
X120623511Y-73202916D02*
X120575892Y-73345773D01*
X120575892Y-73345773D02*
X120480653Y-73441011D01*
X120480653Y-73441011D02*
X120385415Y-73488630D01*
X120385415Y-73488630D02*
X120194939Y-73536249D01*
X120194939Y-73536249D02*
X120052082Y-73536249D01*
X120052082Y-73536249D02*
X119861606Y-73488630D01*
X119861606Y-73488630D02*
X119766368Y-73441011D01*
X119766368Y-73441011D02*
X119671130Y-73345773D01*
X119671130Y-73345773D02*
X119623511Y-73202916D01*
X119623511Y-73202916D02*
X119623511Y-73107678D01*
X119623511Y-73107678D02*
X119671130Y-72964821D01*
X119671130Y-72964821D02*
X119718749Y-72917202D01*
X120623511Y-71964821D02*
X120623511Y-72536249D01*
X120623511Y-72250535D02*
X119623511Y-72250535D01*
X119623511Y-72250535D02*
X119766368Y-72345773D01*
X119766368Y-72345773D02*
X119861606Y-72441011D01*
X119861606Y-72441011D02*
X119909225Y-72536249D01*
X103020699Y-76607200D02*
X103163556Y-76654819D01*
X103163556Y-76654819D02*
X103401651Y-76654819D01*
X103401651Y-76654819D02*
X103496889Y-76607200D01*
X103496889Y-76607200D02*
X103544508Y-76559580D01*
X103544508Y-76559580D02*
X103592127Y-76464342D01*
X103592127Y-76464342D02*
X103592127Y-76369104D01*
X103592127Y-76369104D02*
X103544508Y-76273866D01*
X103544508Y-76273866D02*
X103496889Y-76226247D01*
X103496889Y-76226247D02*
X103401651Y-76178628D01*
X103401651Y-76178628D02*
X103211175Y-76131009D01*
X103211175Y-76131009D02*
X103115937Y-76083390D01*
X103115937Y-76083390D02*
X103068318Y-76035771D01*
X103068318Y-76035771D02*
X103020699Y-75940533D01*
X103020699Y-75940533D02*
X103020699Y-75845295D01*
X103020699Y-75845295D02*
X103068318Y-75750057D01*
X103068318Y-75750057D02*
X103115937Y-75702438D01*
X103115937Y-75702438D02*
X103211175Y-75654819D01*
X103211175Y-75654819D02*
X103449270Y-75654819D01*
X103449270Y-75654819D02*
X103592127Y-75702438D01*
X103877842Y-75654819D02*
X104211175Y-76654819D01*
X104211175Y-76654819D02*
X104544508Y-75654819D01*
X105401651Y-76654819D02*
X104830223Y-76654819D01*
X105115937Y-76654819D02*
X105115937Y-75654819D01*
X105115937Y-75654819D02*
X105020699Y-75797676D01*
X105020699Y-75797676D02*
X104925461Y-75892914D01*
X104925461Y-75892914D02*
X104830223Y-75940533D01*
X106764166Y-65783649D02*
X106716547Y-65878887D01*
X106716547Y-65878887D02*
X106621309Y-65974125D01*
X106621309Y-65974125D02*
X106478451Y-66116982D01*
X106478451Y-66116982D02*
X106430832Y-66212220D01*
X106430832Y-66212220D02*
X106430832Y-66307458D01*
X106668928Y-66259839D02*
X106621309Y-66355077D01*
X106621309Y-66355077D02*
X106526070Y-66450315D01*
X106526070Y-66450315D02*
X106335594Y-66497934D01*
X106335594Y-66497934D02*
X106002261Y-66497934D01*
X106002261Y-66497934D02*
X105811785Y-66450315D01*
X105811785Y-66450315D02*
X105716547Y-66355077D01*
X105716547Y-66355077D02*
X105668928Y-66259839D01*
X105668928Y-66259839D02*
X105668928Y-66069363D01*
X105668928Y-66069363D02*
X105716547Y-65974125D01*
X105716547Y-65974125D02*
X105811785Y-65878887D01*
X105811785Y-65878887D02*
X106002261Y-65831268D01*
X106002261Y-65831268D02*
X106335594Y-65831268D01*
X106335594Y-65831268D02*
X106526070Y-65878887D01*
X106526070Y-65878887D02*
X106621309Y-65974125D01*
X106621309Y-65974125D02*
X106668928Y-66069363D01*
X106668928Y-66069363D02*
X106668928Y-66259839D01*
X106668928Y-64878887D02*
X106668928Y-65450315D01*
X106668928Y-65164601D02*
X105668928Y-65164601D01*
X105668928Y-65164601D02*
X105811785Y-65259839D01*
X105811785Y-65259839D02*
X105907023Y-65355077D01*
X105907023Y-65355077D02*
X105954642Y-65450315D01*
D11*
%TO.C,SV2*%
X127705000Y-66012500D02*
X128975000Y-66012500D01*
X127705000Y-67282500D02*
X127705000Y-66012500D01*
X130017929Y-69442500D02*
X130415000Y-69442500D01*
X130017929Y-70202500D02*
X130415000Y-70202500D01*
X130017929Y-71982500D02*
X130415000Y-71982500D01*
X130017929Y-72742500D02*
X130415000Y-72742500D01*
X130017929Y-74522500D02*
X130415000Y-74522500D01*
X130017929Y-75282500D02*
X130415000Y-75282500D01*
X130085000Y-66902500D02*
X130415000Y-66902500D01*
X130085000Y-67662500D02*
X130415000Y-67662500D01*
X130415000Y-65952500D02*
X130415000Y-76232500D01*
X130415000Y-68552500D02*
X133075000Y-68552500D01*
X130415000Y-71092500D02*
X133075000Y-71092500D01*
X130415000Y-73632500D02*
X133075000Y-73632500D01*
X130415000Y-76232500D02*
X133075000Y-76232500D01*
X133075000Y-65952500D02*
X130415000Y-65952500D01*
X133075000Y-66902500D02*
X139075000Y-66902500D01*
X133075000Y-66962500D02*
X139075000Y-66962500D01*
X133075000Y-67082500D02*
X139075000Y-67082500D01*
X133075000Y-67202500D02*
X139075000Y-67202500D01*
X133075000Y-67322500D02*
X139075000Y-67322500D01*
X133075000Y-67442500D02*
X139075000Y-67442500D01*
X133075000Y-67562500D02*
X139075000Y-67562500D01*
X133075000Y-69442500D02*
X139075000Y-69442500D01*
X133075000Y-71982500D02*
X139075000Y-71982500D01*
X133075000Y-74522500D02*
X139075000Y-74522500D01*
X133075000Y-76232500D02*
X133075000Y-65952500D01*
X139075000Y-66902500D02*
X139075000Y-67662500D01*
X139075000Y-67662500D02*
X133075000Y-67662500D01*
X139075000Y-69442500D02*
X139075000Y-70202500D01*
X139075000Y-70202500D02*
X133075000Y-70202500D01*
X139075000Y-71982500D02*
X139075000Y-72742500D01*
X139075000Y-72742500D02*
X133075000Y-72742500D01*
X139075000Y-74522500D02*
X139075000Y-75282500D01*
X139075000Y-75282500D02*
X133075000Y-75282500D01*
%TO.C,IC1*%
X105910900Y-75785800D02*
X126350900Y-75785800D01*
X126350900Y-75785800D02*
X126350900Y-70485800D01*
X105910900Y-74135800D02*
X105910900Y-75785800D01*
X105910900Y-70485800D02*
X105910900Y-72135800D01*
X126350900Y-70485800D02*
X105910900Y-70485800D01*
X105910900Y-74135800D02*
G75*
G03*
X105910900Y-72135800I0J1000000D01*
G01*
%TO.C,SV1*%
X93725480Y-68068788D02*
X99725480Y-68068788D01*
X93725480Y-68828788D02*
X93725480Y-68068788D01*
X93725480Y-70608788D02*
X99725480Y-70608788D01*
X93725480Y-71368788D02*
X93725480Y-70608788D01*
X93725480Y-73148788D02*
X99725480Y-73148788D01*
X93725480Y-73908788D02*
X93725480Y-73148788D01*
X99725480Y-67118788D02*
X99725480Y-74858788D01*
X99725480Y-68828788D02*
X93725480Y-68828788D01*
X99725480Y-71368788D02*
X93725480Y-71368788D01*
X99725480Y-73248788D02*
X93725480Y-73248788D01*
X99725480Y-73368788D02*
X93725480Y-73368788D01*
X99725480Y-73488788D02*
X93725480Y-73488788D01*
X99725480Y-73608788D02*
X93725480Y-73608788D01*
X99725480Y-73728788D02*
X93725480Y-73728788D01*
X99725480Y-73848788D02*
X93725480Y-73848788D01*
X99725480Y-73908788D02*
X93725480Y-73908788D01*
X99725480Y-74858788D02*
X102385480Y-74858788D01*
X102385480Y-67118788D02*
X99725480Y-67118788D01*
X102385480Y-69718788D02*
X99725480Y-69718788D01*
X102385480Y-72258788D02*
X99725480Y-72258788D01*
X102385480Y-74858788D02*
X102385480Y-67118788D01*
X102715480Y-73148788D02*
X102385480Y-73148788D01*
X102715480Y-73908788D02*
X102385480Y-73908788D01*
X102782551Y-68068788D02*
X102385480Y-68068788D01*
X102782551Y-68828788D02*
X102385480Y-68828788D01*
X102782551Y-70608788D02*
X102385480Y-70608788D01*
X102782551Y-71368788D02*
X102385480Y-71368788D01*
X105095480Y-73528788D02*
X105095480Y-74798788D01*
X105095480Y-74798788D02*
X103825480Y-74798788D01*
%TO.C,Q1*%
X111920606Y-67913256D02*
X108920606Y-67913256D01*
X111920606Y-64513256D02*
X108920606Y-64513256D01*
X111920606Y-67913256D02*
G75*
G03*
X113258396Y-67262217I2J1699996D01*
G01*
X113258396Y-65164295D02*
G75*
G03*
X111920606Y-64513256I-1337790J-1048961D01*
G01*
X107582816Y-67262217D02*
G75*
G03*
X108920606Y-67913256I1337790J1048961D01*
G01*
X108920606Y-64513256D02*
G75*
G03*
X107582816Y-65164295I0J-1700000D01*
G01*
%TD*%
M02*
